{
  "accessors": [
    {
      "bufferView": 2,
      "componentType": 5126,
      "count": 1958,
      "max": [
        0.47672998905181885,
        0.0467849001288414,
        0.9633169770240784
      ],
      "min": [
        -0.47672998905181885,
        -0.08832059800624847,
        0.030243799090385437
      ],
      "type": "VEC3"
    },
    {
      "bufferView": 2,
      "byteOffset": 23496,
      "componentType": 5126,
      "count": 1958,
      "max": [
        0.9999086260795593,
        1.0,
        0.9999980926513672
      ],
      "min": [
        -0.9999086260795593,
        -1.0,
        -0.9999999403953552
      ],
      "type": "VEC3"
    },
    {
      "bufferView": 3,
      "componentType": 5126,
      "count": 1958,
      "max": [
        1.0,
        1.0,
        0.9999858140945435,
        1.0
      ],
      "min": [
        -1.0,
        -1.0,
        -0.999841570854187,
        -1.0
      ],
      "type": "VEC4"
    },
    {
      "bufferView": 1,
      "componentType": 5126,
      "count": 1958,
      "max": [
        0.9912109971046448,
        0.9907230138778687
      ],
      "min": [
        0.007324220146983862,
        0.009277340024709702
      ],
      "type": "VEC2"
    },
    {
      "bufferView": 0,
      "componentType": 5125,
      "count": 6534,
      "type": "SCALAR"
    },
    {
      "bufferView": 2,
      "byteOffset": 46992,
      "componentType": 5126,
      "count": 987,
      "max": [
        0.390514999628067,
        0.13180899620056152,
        1.0
      ],
      "min": [
        -0.390514999628067,
        -0.15945899486541748,
        0.0
      ],
      "type": "VEC3"
    },
    {
      "bufferView": 2,
      "byteOffset": 58836,
      "componentType": 5126,
      "count": 987,
      "max": [
        0.9984183311462402,
        0.9996480941772461,
        1.0
      ],
      "min": [
        -0.9984183311462402,
        -0.9996481537818909,
        -1.0
      ],
      "type": "VEC3"
    },
    {
      "bufferView": 1,
      "byteOffset": 15664,
      "componentType": 5126,
      "count": 987,
      "max": [
        0.9902340173721313,
        0.9892579913139343
      ],
      "min": [
        0.008789059706032276,
        0.009765620343387127
      ],
      "type": "VEC2"
    },
    {
      "bufferView": 0,
      "byteOffset": 26136,
      "componentType": 5125,
      "count": 3138,
      "type": "SCALAR"
    }
  ],
  "asset": {
    "extras": {
      "author": "peedr0o0 (https://sketchfab.com/peedr0o0)",
      "license": "CC-BY-4.0 (http://creativecommons.org/licenses/by/4.0/)",
      "source": "https://sketchfab.com/3d-models/kingdom-hearts-claude-frollo-8c1d4e960ea34e73a34637279e53b3d9",
      "title": "Kingdom Hearts - Claude Frollo"
    },
    "generator": "Sketchfab-12.68.0",
    "version": "2.0"
  },
  "bufferViews": [
    {
      "buffer": 0,
      "byteLength": 38688,
      "name": "floatBufferViews",
      "target": 34963
    },
    {
      "buffer": 0,
      "byteLength": 23560,
      "byteOffset": 38688,
      "byteStride": 8,
      "name": "floatBufferViews",
      "target": 34962
    },
    {
      "buffer": 0,
      "byteLength": 70680,
      "byteOffset": 62248,
      "byteStride": 12,
      "name": "floatBufferViews",
      "target": 34962
    },
    {
      "buffer": 0,
      "byteLength": 31328,
      "byteOffset": 132928,
      "byteStride": 16,
      "name": "floatBufferViews",
      "target": 34962
    }
  ],
  "buffers": [
    {
      "byteLength": 164256,
      "uri": "scene.bin"
    }
  ],
  "images": [
    {
      "uri": "textures/h_nd070_00_baseColor.png"
    },
    {
      "uri": "textures/h_nd070_00_normal.png"
    },
    {
      "uri": "textures/h_nd070_01_baseColor.png"
    }
  ],
  "materials": [
    {
      "emissiveFactor": [
        1.0,
        1.0,
        1.0
      ],
      "emissiveTexture": {
        "index": 0
      },
      "name": "h_nd070_00",
      "normalTexture": {
        "index": 1,
        "scale": 0.0
      },
      "pbrMetallicRoughness": {
        "baseColorTexture": {
          "index": 0
        },
        "metallicFactor": 0.0,
        "roughnessFactor": 0.6
      }
    },
    {
      "emissiveFactor": [
        1.0,
        1.0,
        1.0
      ],
      "emissiveTexture": {
        "index": 2
      },
      "name": "h_nd070_01",
      "pbrMetallicRoughness": {
        "baseColorTexture": {
          "index": 2
        },
        "metallicFactor": 0.0,
        "roughnessFactor": 0.6
      }
    }
  ],
  "meshes": [
    {
      "name": "Object_0",
      "primitives": [
        {
          "attributes": {
            "NORMAL": 1,
            "POSITION": 0,
            "TANGENT": 2,
            "TEXCOORD_0": 3
          },
          "indices": 4,
          "material": 0,
          "mode": 4
        }
      ]
    },
    {
      "name": "Object_1",
      "primitives": [
        {
          "attributes": {
            "NORMAL": 6,
            "POSITION": 5,
            "TEXCOORD_0": 7
          },
          "indices": 8,
          "material": 1,
          "mode": 4
        }
      ]
    }
  ],
  "nodes": [
    {
      "children": [
        1
      ],
      "matrix": [
        1.0,
        0.0,
        0.0,
        0.0,
        0.0,
        2.220446049250313e-16,
        -1.0,
        0.0,
        0.0,
        1.0,
        2.220446049250313e-16,
        0.0,
        0.0,
        0.0,
        0.0,
        1.0
      ],
      "name": "Sketchfab_model"
    },
    {
      "children": [
        2,
        3
      ],
      "name": "595611afe1074a31a167dac585c74aa2.obj.cleaner.materialmerger.gles"
    },
    {
      "mesh": 0,
      "name": "Object_2"
    },
    {
      "mesh": 1,
      "name": "Object_3"
    }
  ],
  "samplers": [
    {
      "magFilter": 9729,
      "minFilter": 9987,
      "wrapS": 10497,
      "wrapT": 10497
    }
  ],
  "scene": 0,
  "scenes": [
    {
      "name": "Sketchfab_Scene",
      "nodes": [
        0
      ]
    }
  ],
  "textures": [
    {
      "sampler": 0,
      "source": 0
    },
    {
      "sampler": 0,
      "source": 1
    },
    {
      "sampler": 0,
      "source": 2
    }
  ]
}
